<svg xmlns="http://www.w3.org/2000/svg" viewBox="0 0 800 500" role="img"><defs><linearGradient id="g" x1="0" y1="0" x2="1" y2="1"><stop stop-color="#111827"/><stop offset="1" stop-color="#4b5563"/></linearGradient><filter id="s"><feDropShadow dx="0" dy="12" stdDeviation="12" flood-opacity=".22"/></filter></defs><g filter="url(#s)"><path d="M190 350c-18-18-25-42-17-66l65-190c7-21 25-34 47-34h46c25 0 44 18 48 42l30 190c4 25-4 45-22 60l-35 28H225z" fill="url(#g)"/><circle cx="295" cy="130" r="31" fill="#0d6fe8"/><circle cx="295" cy="130" r="13" fill="#c9e8ff"/><rect x="270" y="210" width="50" height="95" rx="14" fill="#0b1220"/><path d="M470 120h130v220H470z" fill="#202b3c" rx="28"/><rect x="500" y="155" width="70" height="115" rx="16" fill="#111827"/><path d="M500 300h70" stroke="#0d6fe8" stroke-width="14" stroke-linecap="round"/></g></svg>